<svg xmlns="http://www.w3.org/2000/svg" width="24" height="24" viewBox="0 0 24 24">
    <defs>
        <style>
            .cls-1,.cls-6{fill:none}.cls-2,.cls-6{stroke:#fff;stroke-linejoin:round}.cls-2{fill:#fff;stroke-width:.2px}.cls-6{stroke-linecap:round;stroke-width:1.2px}
        </style>
    </defs>
    <g id="icon_menu_live" transform="translate(2 2.393)">
        <path id="area" d="M0 0H24V24H0z" class="cls-1" transform="translate(-2 -2.393)"/>
        <g id="icon" transform="translate(-2 0.58)">
            <g id="LIVE" transform="translate(4.6 8.423)">
                <path id="패스_1422" d="M900.019 37.073h-3.165v-5.1h.792v4.413h2.374z" class="cls-2" transform="translate(-896.854 -31.974)"/>
                <path id="패스_1423" d="M900.752 37.073v-5.1h.792v5.1z" class="cls-2" transform="translate(-896.54 -31.974)"/>
                <path id="패스_1424" d="M904.117 37.073l-1.819-5.1h.859l1.388 4.208h.022l1.392-4.208h.845l-1.82 5.1z" class="cls-2" transform="translate(-896.249 -31.974)"/>
                <path id="패스_1425" d="M910.574 37.073h-3.236v-5.1h3.236v.682h-2.444v1.491h2.314v.654h-2.314v1.583h2.444z" class="cls-2" transform="translate(-895.737 -31.974)"/>
            </g>
            <g id="TV" opacity="0.901">
                <g id="사각형_2321" fill="none" stroke="#fff" stroke-linecap="round" stroke-linejoin="round" stroke-width="1.2px" opacity="0.998" transform="translate(0 3.025)">
                    <rect width="24" height="16" stroke="none" rx="3"/>
                    <rect width="22.8" height="14.8" x=".6" y=".6" class="cls-1" rx="2.4"/>
                </g>
                <g id="antennae" opacity="0.998" transform="translate(8.671 0.527)">
                    <path id="선_34" d="M3.055 3L0 0" class="cls-6" transform="translate(-0.471)"/>
                    <path id="선_35" d="M0 3L3.055 0" class="cls-6" transform="translate(4.024)"/>
                </g>
            </g>
        </g>
    </g>
</svg>
